<?xml version="1.0" encoding="iso-8859-1"?>
<!-- Generator: Adobe Illustrator 18.0.0, SVG Export Plug-In . SVG Version: 6.00 Build 0)  -->
<!DOCTYPE svg PUBLIC "-//W3C//DTD SVG 1.1//EN" "http://www.w3.org/Graphics/SVG/1.1/DTD/svg11.dtd">
<svg version="1.1" id="Capa_1" xmlns="http://www.w3.org/2000/svg" xmlns:xlink="http://www.w3.org/1999/xlink" x="0px" y="0px"
	 viewBox="0 0 360 360" style="enable-background:new 0 0 360 360;" xml:space="preserve">
<g>
	<path d="M180.003,0C113.723,0,60,53.723,60,120v120c0,66.277,53.723,120,120.003,120C246.277,360,300,306.277,300,240V120
		C300,53.723,246.277,0,180.003,0z M249.367,224.128c2.705,2.168,4.279,5.448,4.279,8.915c0,3.467-1.574,6.746-4.279,8.915
		l-71.652,57.439c-2.067,1.657-4.597,2.511-7.148,2.511c-1.68,0-3.369-0.371-4.942-1.125c-3.961-1.901-6.481-5.906-6.481-10.3
		v-82.024l-34.182,27.632c-2.114,1.709-4.653,2.541-7.176,2.541c-3.331,0-6.634-1.45-8.892-4.243
		c-3.967-4.907-3.204-12.101,1.703-16.068l47.385-38.306l-47.385-38.306c-4.907-3.967-5.67-11.161-1.703-16.068
		c3.967-4.908,11.162-5.669,16.068-1.703l34.182,27.632V69.519c0-4.394,2.52-8.399,6.481-10.3c3.962-1.901,8.663-1.362,12.091,1.386
		l71.652,57.441c2.705,2.168,4.279,5.448,4.279,8.914s-1.574,6.746-4.279,8.915L194.322,180L249.367,224.128z"/>
	<polygon points="181.994,160.596 223.954,126.959 181.994,93.321 	"/>
	<polygon points="181.994,266.679 223.954,233.042 181.994,199.404 	"/>
</g>
<g>
</g>
<g>
</g>
<g>
</g>
<g>
</g>
<g>
</g>
<g>
</g>
<g>
</g>
<g>
</g>
<g>
</g>
<g>
</g>
<g>
</g>
<g>
</g>
<g>
</g>
<g>
</g>
<g>
</g>
</svg>
